<?xml version="1.0" standalone="no"?>
<!DOCTYPE svg PUBLIC "-//W3C//DTD SVG 20010904//EN"
 "http://www.w3.org/TR/2001/REC-SVG-20010904/DTD/svg10.dtd">
<svg version="1.0" xmlns="http://www.w3.org/2000/svg"
 width="1280.000000pt" height="861.000000pt" viewBox="0 0 1280.000000 861.000000"
 preserveAspectRatio="xMidYMid meet">

<g transform="translate(0.000000,861.000000) scale(0.100000,-0.100000)"
fill="#000000" stroke="none">
<path d="M3477 4782 c-10 -10 -17 -22 -17 -26 0 -4 -12 -26 -27 -49 -16 -23
-33 -51 -40 -62 -6 -11 -28 -46 -48 -78 -20 -31 -35 -63 -33 -69 3 -7 18 11
34 40 16 28 56 97 89 151 l60 100 340 3 340 3 -341 3 c-319 2 -342 1 -357 -16z"/>
<path d="M4560 4735 l0 -65 138 0 138 0 64 65 64 65 -202 0 -202 0 0 -65z"/>
<path d="M4776 4579 l-216 -222 0 -63 c0 -106 12 -98 267 163 l222 228 1 58
c0 56 0 57 -29 57 -24 0 -62 -35 -245 -221z"/>
<path d="M5160 4515 l0 -286 63 3 62 3 3 283 2 282 -65 0 -65 0 0 -285z"/>
<path d="M5390 4515 l0 -285 70 0 70 0 0 91 0 90 52 -3 52 -3 55 -87 54 -88
79 0 c90 0 89 -12 10 109 -37 58 -40 66 -23 69 10 2 33 21 50 42 31 39 31 40
31 157 l0 119 -38 37 -38 37 -132 0 -132 0 0 -50 0 -50 93 0 c59 0 97 -4 105
-12 17 -17 16 -142 -2 -157 -9 -8 -48 -11 -112 -9 l-99 3 -3 138 -3 137 -69 0
-70 0 0 -285z"/>
<path d="M6042 4767 l-32 -33 0 -215 0 -215 38 -37 c25 -24 47 -37 65 -37 l27
0 0 223 c0 160 3 226 12 235 16 16 190 16 206 0 7 -7 12 -29 12 -50 l0 -38 70
0 70 0 0 63 c0 60 -2 65 -38 100 l-38 37 -180 0 -180 0 -32 -33z"/>
<path d="M6657 4765 l-37 -36 0 -212 0 -213 38 -37 c25 -24 47 -37 65 -37 l27
0 0 223 c0 160 3 226 12 235 16 16 190 16 206 0 8 -8 12 -61 12 -175 l0 -162
-97 -3 -98 -3 0 -55 0 -55 129 -3 130 -3 38 38 38 37 0 211 0 211 -38 37 -38
37 -175 0 -176 0 -36 -35z"/>
<path d="M7230 4515 l0 -285 65 0 65 0 0 285 0 285 -65 0 -65 0 0 -285z"/>
<path d="M7588 4628 l-3 -173 -35 55 c-19 30 -37 59 -39 64 -2 6 -29 48 -60
95 l-56 86 -3 -107 c-3 -103 -2 -107 26 -150 39 -58 82 -125 107 -168 63 -107
53 -100 128 -100 l67 0 0 285 0 285 -65 0 -65 0 -2 -172z"/>
<path d="M7872 4767 l-32 -33 0 -215 0 -215 33 -32 c23 -23 42 -32 65 -32 l33
0 -1 216 c-1 153 2 219 11 230 18 21 204 20 213 -2 12 -31 7 -319 -6 -332 -8
-8 -45 -12 -100 -12 l-88 0 0 -50 0 -50 133 0 133 0 32 33 32 33 0 210 0 210
-38 37 -38 37 -175 0 -175 0 -32 -33z"/>
<path d="M8450 4520 l0 -280 65 0 65 0 0 280 0 280 -65 0 -65 0 0 -280z"/>
<path d="M8810 4623 c0 -133 -3 -174 -11 -166 -12 12 -66 99 -146 232 l-38 64
-3 -101 c-3 -118 -12 -96 122 -305 l68 -107 69 0 69 0 0 280 0 280 -65 0 -65
0 0 -177z"/>
<path d="M9050 4520 l0 -280 70 0 70 0 0 280 0 280 -70 0 -70 0 0 -280z"/>
<path d="M9219 4790 c-1 -5 -1 -19 -1 -30 0 -65 -11 -60 142 -60 l140 0 0 50
0 50 -140 0 c-86 0 -140 -4 -141 -10z"/>
<path d="M3547 4653 c-13 -21 -42 -71 -65 -110 l-41 -73 74 0 c71 0 74 1 92
30 16 28 21 30 83 30 l65 1 46 79 47 80 -139 0 -139 0 -23 -37z"/>
<path d="M9220 4520 l0 -50 100 0 100 0 0 50 0 50 -100 0 -100 0 0 -50z"/>
<path d="M6368 4398 l-3 -43 -97 -3 -98 -3 0 -59 0 -60 133 0 133 0 37 38 c35
36 37 41 37 105 l0 67 -69 0 -70 0 -3 -42z"/>
<path d="M4706 4304 c-36 -36 -66 -67 -66 -70 0 -2 92 -4 205 -4 l205 0 0 70
0 70 -139 0 -138 0 -67 -66z"/>
<path d="M9220 4290 l0 -50 140 0 140 0 0 50 0 50 -140 0 -140 0 0 -50z"/>
<path d="M3733 4223 c-46 -49 -115 -120 -153 -158 -37 -39 -80 -85 -95 -103
l-27 -32 124 0 124 0 52 91 c29 50 49 95 46 101 -4 6 -2 8 3 5 17 -11 24 36 8
59 -12 18 -11 23 3 39 16 17 16 17 -2 11 -16 -5 -17 -4 -6 9 7 9 10 19 6 22
-4 4 -11 1 -16 -7 -6 -8 -10 -10 -10 -4 0 14 25 36 32 29 2 -3 5 2 5 10 0 8
-2 15 -5 15 -3 0 -43 -39 -89 -87z m87 -57 c0 -3 -4 -8 -10 -11 -5 -3 -10 -1
-10 4 0 6 5 11 10 11 6 0 10 -2 10 -4z"/>
<path d="M3843 4189 c-2 -23 3 -25 10 -4 4 8 3 16 -1 19 -4 3 -9 -4 -9 -15z"/>
<path d="M4018 4125 c-10 -23 -17 -25 -77 -25 l-66 0 -48 -79 c-26 -44 -47
-82 -47 -85 0 -3 62 -6 138 -6 l138 0 37 68 c21 37 49 86 63 110 l25 42 -76 0
c-71 0 -76 -2 -87 -25z"/>
<path d="M4205 3965 l-87 -145 -342 -3 -341 -2 345 -3 345 -2 14 23 c95 150
168 277 161 277 -4 0 -47 -65 -95 -145z"/>
<path d="M4560 3950 l0 -140 25 0 25 0 0 140 0 140 -25 0 -25 0 0 -140z"/>
<path d="M4960 3950 l0 -140 25 0 c25 0 25 0 25 98 1 88 2 95 16 77 86 -115
139 -175 155 -175 18 0 19 10 21 125 0 69 1 131 2 138 1 6 -11 13 -26 15 l-28
3 0 -91 0 -92 -72 91 c-53 68 -77 91 -95 91 -23 0 -23 0 -23 -140z"/>
<path d="M5550 3949 l0 -142 90 5 c102 6 134 21 156 73 30 74 11 147 -49 184
-28 17 -51 21 -116 21 l-81 0 0 -141z m191 60 c21 -27 24 -67 8 -103 -12 -27
-72 -56 -114 -56 -25 0 -25 0 -25 96 l0 96 56 -4 c45 -4 60 -10 75 -29z"/>
<path d="M6140 4005 c0 -139 36 -195 125 -195 47 0 88 22 103 55 7 14 12 70
12 125 0 100 0 100 -25 100 l-25 0 0 -100 c0 -87 -3 -103 -20 -120 -27 -27
-62 -25 -88 3 -19 21 -22 34 -22 120 l0 97 -30 0 -30 0 0 -85z"/>
<path d="M6741 4064 c-43 -55 -18 -107 60 -123 28 -6 59 -16 70 -21 41 -22 9
-70 -47 -70 -27 0 -37 5 -46 25 -7 16 -19 25 -35 25 -34 0 -31 -42 5 -70 23
-19 37 -21 91 -18 72 5 101 27 101 80 0 34 -39 78 -70 78 -38 0 -90 28 -90 48
0 36 72 45 92 12 16 -26 58 -27 58 -2 0 10 -10 28 -23 40 -19 18 -35 22 -84
22 -55 0 -64 -3 -82 -26z"/>
<path d="M7260 4065 c0 -22 4 -25 40 -25 l40 0 0 -115 0 -115 25 0 25 0 0 115
0 115 45 0 c41 0 45 2 45 25 l0 25 -110 0 -110 0 0 -25z"/>
<path d="M7800 3950 l0 -140 30 0 c29 0 30 1 30 51 0 49 1 50 27 47 20 -2 34
-15 53 -48 21 -37 32 -46 58 -48 l33 -3 -32 50 -31 51 26 31 c35 41 34 83 -3
120 -28 27 -34 29 -110 29 l-81 0 0 -140z m158 78 c32 -32 -6 -78 -65 -78 -32
0 -33 1 -33 45 l0 45 43 0 c24 0 48 -5 55 -12z"/>
<path d="M8350 3950 l0 -140 30 0 30 0 0 140 0 140 -30 0 -30 0 0 -140z"/>
<path d="M8760 3950 l0 -140 95 0 c88 0 95 1 95 20 0 22 -5 23 -87 20 l-53 -1
0 40 0 41 60 0 c53 0 60 2 60 20 0 18 -7 20 -60 20 l-60 0 0 35 0 35 70 0 c68
0 70 1 70 25 0 25 0 25 -95 25 l-95 0 0 -140z"/>
<path d="M9305 4065 c-50 -49 -21 -111 59 -126 55 -10 76 -24 76 -48 0 -46
-66 -56 -106 -16 -25 25 -64 34 -64 15 0 -23 24 -59 47 -69 31 -14 105 -14
137 0 13 7 30 24 36 40 23 54 -14 103 -86 114 -57 8 -82 28 -68 52 6 10 19 20
28 21 29 6 66 -7 66 -23 0 -10 10 -15 30 -15 36 0 39 16 9 54 -18 23 -28 26
-80 26 -50 0 -64 -4 -84 -25z"/>
</g>
</svg>
